<svg xmlns="http://www.w3.org/2000/svg" viewBox="0 0 400 400">
  <rect width="400" height="400" fill="#13101f"/>
  <path d="M108 84h144c24 0 40 10 40 34v180c0 18-10 26-28 26H132c-20 0-32-10-32-30V110c0-18 10-26 32-26z" fill="#00d4ff"/>
  <path d="M140 84h132c18 0 28 10 28 28v184c0 18-10 28-28 28H140z" fill="#0d2a4d"/>
  <path d="M154 132h92M154 170h92M154 208h92" stroke="#9ee8ff" stroke-width="10" stroke-linecap="round"/>
  <text x="200" y="346" fill="#eef9ff" font-family="Arial, sans-serif" font-size="28" font-weight="700" text-anchor="middle">Books</text>
</svg>
